# xmcd
#
# Track frame offsets: 
#        150
#        10040
#        20538
#        59427
#        78655
#        93149
#        105488
#        135016
#        145745
#        162621
#        175084
#        209980
#        219710
#        236925
#        251214
#        272316
#
# Disc length: 4012 seconds
#
# Revision: 0
# Processed by: cddbd v1.5.2PL0 Copyright (c) Steve Scherf et al.
# Submitted via: ExactAudioCopy v0.95b3
#
DISCID=e00faa10
DTITLE=Creedence Clearwater Revival  - Collected - Disc 2
DYEAR=1900
DGENRE=
TTITLE0=Travelin' Band
TTITLE1=Fortunate Son
TTITLE2=Susie Q
TTITLE3=The Midnight Special
TTITLE4=Lodi
TTITLE5=Hey Tonight
TTITLE6=Effigy
TTITLE7=Porterville
TTITLE8=(Wish I Could) Hideaway
TTITLE9=Down On The Corner
TTITLE10=Keep On Chooglin'
TTITLE11=Ooby Dooby
TTITLE12=Sailor's Lament
TTITLE13=The Night Time Is The Right Time
TTITLE14=Walk On The Water
TTITLE15=Rude Awakening [Nr21]
EXTD=
EXTT0=
EXTT1=
EXTT2=
EXTT3=
EXTT4=
EXTT5=
EXTT6=
EXTT7=
EXTT8=
EXTT9=
EXTT10=
EXTT11=
EXTT12=
EXTT13=
EXTT14=
EXTT15=
PLAYORDER=
